# Blender v2.83.4 OBJ File: ''
# www.blender.org
mtllib tree.mtl
o tree
v 0.048669 3.823239 -0.073269
v -0.032351 5.084074 -0.083444
v -0.078347 3.823239 -0.146602
v 0.048669 3.823239 0.073397
v 0.066525 5.084074 0.030728
v 0.048669 3.823239 0.000064
v -0.032351 5.084074 0.144900
v 0.066525 5.084074 0.087814
v -0.141856 3.823239 0.110063
v -0.131227 5.084074 0.087814
v -0.081789 5.084074 0.116357
v -0.032351 5.088710 0.030728
v -0.081789 5.084074 -0.054901
v -0.205364 3.823239 0.073397
v -0.131227 5.084074 -0.026358
v -0.141856 3.823239 -0.109936
v -0.078348 1.301571 -0.289753
v -0.100583 2.562406 -0.106344
v -0.203841 1.301571 -0.217299
v -0.329335 1.301571 0.144970
v -0.184147 2.562406 -0.058099
v -0.184147 2.562406 0.134883
v -0.203841 1.301571 0.217424
v -0.100583 2.562406 0.183129
v 0.172640 1.301571 0.144970
v -0.017020 2.562406 0.231374
v 0.150108 2.562406 0.134883
v 0.150108 2.562406 0.038392
v 0.172640 1.301571 0.000062
v 0.172640 1.301571 -0.144845
v -0.017020 2.562405 -0.154589
v 0.205098 0.494430 -0.163585
v -0.078348 0.494430 -0.327233
v 0.198025 0.670321 -0.004022
v 0.022218 0.447162 0.424644
v 0.279287 0.447162 0.257866
v -0.216516 0.758683 0.235314
v -0.354687 0.671155 -0.159482
v -0.354687 0.671155 0.159607
v -0.216516 0.582792 -0.243358
v -0.271103 0.000027 -0.278977
v -0.678312 0.000027 -0.005937
v -0.281152 0.000027 0.285626
v 0.138768 0.000027 0.556325
v 0.381664 0.000027 0.376453
v 0.249466 0.000027 -0.002897
v 0.251928 0.000027 -0.410697
v -0.049764 0.000027 -0.584878
v 0.150108 2.562406 -0.058099
v 0.066525 5.084074 -0.026358
v -0.078348 1.301571 0.289877
v -0.078348 3.823239 0.146730
v -0.682106 0.000027 -0.174119
v -0.329335 1.301571 -0.144845
v -0.205364 3.823239 -0.073269
v -0.023804 5.075827 0.359176
v 0.461941 4.799195 0.489667
v 0.229183 5.085186 0.251390
v 0.331713 5.099790 -0.003620
v 0.461941 4.799195 -0.489539
v 0.223724 5.111084 -0.256471
v -0.027664 5.766583 0.000064
v -0.387039 5.088490 0.003748
v -0.279051 5.077196 0.256599
v -0.031523 5.112453 -0.359048
v -0.284509 5.103094 -0.251262
v -0.517267 4.799195 -0.489539
v -0.027664 4.799195 0.692467
v 0.664740 4.799195 0.000064
v -0.027664 4.799195 -0.692339
v -0.720066 4.799195 0.000064
v -0.761521 3.964759 0.693617
v -0.023118 4.484784 0.481854
v -0.381999 4.493515 0.330531
v -0.751935 4.010028 -0.773025
v -0.528705 4.506332 -0.030211
v -0.377295 4.515726 -0.389055
v -0.011841 5.582357 -0.008588
v 0.337711 4.485251 0.335113
v 0.489120 4.494645 -0.023731
v 0.342415 4.507461 -0.384473
v -0.016503 4.010982 -1.072106
v -0.016467 4.516192 -0.535795
v 1.013971 3.967062 -0.028430
v 0.714960 3.993186 -0.763686
v 0.705374 3.947917 0.702956
v -1.060532 3.990882 -0.041638
v 1.176907 3.153390 -0.082081
v 0.379951 3.627502 -0.467658
v 0.588409 3.637421 -0.046454
v 0.016983 3.622246 0.607451
v 0.884403 3.149154 0.784310
v 0.438063 3.635244 0.398871
v -0.636629 3.596124 0.035899
v -0.800874 3.092343 0.897602
v -0.428171 3.606043 0.457103
v -0.045413 4.764821 -0.012817
v -0.486283 3.598301 -0.409426
v 0.065179 3.123868 1.190107
v -0.094711 3.102569 -1.194049
v -0.065202 3.611299 -0.618006
v 0.771343 3.134094 -0.901543
v -0.913935 3.077283 -0.788252
v -0.029116 4.283429 0.011023
v 0.569550 2.877780 -0.245386
v 0.224294 2.880224 -0.592453
v 0.568275 2.870375 0.244128
v 1.208473 2.266624 -0.512554
v -0.268322 2.858399 0.588028
v 0.221217 2.862348 0.589339
v 0.485756 2.234605 1.219331
v -1.246271 2.231486 0.496519
v -0.613578 2.860844 0.240961
v -0.523554 2.263505 -1.235366
v -0.612303 2.868248 -0.248553
v -0.265244 2.876276 -0.593765
v 1.205830 2.251261 0.503088
v 0.492139 2.271696 -1.232645
v -1.243627 2.246849 -0.519123
v -0.025781 2.070242 0.783628
v 1.153034 1.283688 1.179070
v 0.520180 2.070835 0.557991
v 0.746782 2.090925 0.012658
v 1.155436 1.387901 -1.194020
v 0.521284 2.118742 -0.532921
v -0.006965 3.809541 0.058656
v -0.796783 2.117311 0.011815
v -0.571286 2.089493 0.557395
v -0.024220 2.137993 -0.759155
v -0.570183 2.137400 -0.533518
v -1.218860 1.428488 -1.195317
v -1.221260 1.324274 1.177773
v 1.645966 1.327389 -0.007206
v -0.031216 1.429778 -1.686152
v -1.711792 1.384787 -0.009041
v -0.517267 4.799195 0.489667
v -0.030059 3.946963 1.002038
v -1.206437 3.073047 0.078139
v -0.529938 2.226414 1.216609
v -0.034610 1.282398 1.669905
vt 0.268160 0.481465
vt 0.289942 0.637028
vt 0.287047 0.481660
vt 0.112446 0.162175
vt 0.127049 0.007071
vt 0.095090 0.161010
vt 0.153165 0.007885
vt 0.140560 0.007978
vt 0.367863 0.339365
vt 0.379306 0.185465
vt 0.372543 0.184125
vt 0.517830 0.090731
vt 0.432836 0.092302
vt 0.486601 0.119565
vt 0.376550 0.341087
vt 0.406486 0.185932
vt 0.201956 0.511022
vt 0.189182 0.354873
vt 0.184492 0.511079
vt 0.221252 0.822881
vt 0.193596 0.665754
vt 0.186744 0.822993
vt 0.347150 0.651319
vt 0.401728 0.494829
vt 0.355787 0.494038
vt 0.329985 0.647916
vt 0.344357 0.491773
vt 0.081447 0.473777
vt 0.124697 0.318627
vt 0.103391 0.318783
vt 0.080553 0.317250
vt 0.047150 0.471475
vt 0.246844 0.169512
vt 0.269804 0.326041
vt 0.284164 0.169897
vt 0.239118 0.069778
vt 0.281264 0.070213
vt 0.034131 0.549072
vt 0.129634 0.581469
vt 0.092515 0.581417
vt 0.323074 0.714349
vt 0.416542 0.730057
vt 0.340580 0.728750
vt 0.187867 0.911805
vt 0.181408 0.984344
vt 0.226427 0.922599
vt 0.376507 0.819266
vt 0.307360 0.808242
vt 0.153165 0.639567
vt 0.112818 0.639164
vt 0.021824 0.631803
vt 0.249608 0.020503
vt 0.281432 0.069998
vt 0.297173 0.019548
vt 0.193271 0.010651
vt 0.249443 0.020387
vt 0.203933 0.093480
vt 0.244953 0.325785
vt 0.250771 0.482394
vt 0.212483 0.171347
vt 0.275240 0.636876
vt 0.276644 0.745647
vt 0.243196 0.796741
vt 0.312820 0.644513
vt 0.359176 0.337643
vt 0.332927 0.489507
vt 0.365781 0.182784
vt 0.084303 0.986340
vt 0.149307 0.901012
vt 0.152237 0.823104
vt 0.170618 0.665828
vt 0.167029 0.511135
vt 0.175588 0.354917
vt 0.699422 0.341217
vt 0.821978 0.461714
vt 0.791147 0.349336
vt 0.862885 0.290918
vt 0.975290 0.162904
vt 0.864669 0.200040
vt 0.751261 0.236696
vt 0.639637 0.182474
vt 0.637854 0.273352
vt 0.803101 0.132175
vt 0.711376 0.124056
vt 0.680545 0.011678
vt 0.646245 0.441377
vt 0.975290 0.351639
vt 0.856278 0.032015
vt 0.527233 0.121753
vt 0.838706 0.478264
vt 0.676849 0.617676
vt 0.761117 0.624424
vt 0.979245 0.854190
vt 0.818282 0.685734
vt 0.818239 0.766853
vt 0.715373 0.719010
vt 0.612507 0.671166
vt 0.612465 0.752285
vt 0.669630 0.813596
vt 0.799607 0.983504
vt 0.753897 0.820344
vt 0.451501 0.805171
vt 0.592041 0.959755
vt 0.451501 0.583830
vt 0.979246 0.632848
vt 0.631140 0.454516
vt 0.612507 0.671166
vt 0.676849 0.617676
vt 0.818282 0.685734
vt 0.838706 0.478264
vt 0.761117 0.624424
vt 0.753897 0.820344
vt 0.979245 0.854190
vt 0.818239 0.766853
vt 0.715373 0.719010
vt 0.669630 0.813596
vt 0.979246 0.632848
vt 0.451501 0.805171
vt 0.612465 0.752285
vt 0.451501 0.583830
vt 0.592041 0.959755
vt 0.715373 0.719010
vt 0.753897 0.820344
vt 0.818239 0.766853
vt 0.669630 0.813596
vt 0.799607 0.983504
vt 0.612507 0.671166
vt 0.612465 0.752285
vt 0.451501 0.805171
vt 0.631140 0.454516
vt 0.676849 0.617676
vt 0.979246 0.632848
vt 0.761117 0.624424
vt 0.818282 0.685734
vt 0.592041 0.959755
vt 0.979245 0.854190
vt 0.838706 0.478264
vt 0.761117 0.624424
vt 0.631140 0.454516
vt 0.676849 0.617676
vt 0.612507 0.671166
vt 0.451501 0.805171
vt 0.612465 0.752285
vt 0.715373 0.719010
vt 0.818239 0.766853
vt 0.818282 0.685734
vt 0.669630 0.813596
vt 0.753897 0.820344
vt 0.799607 0.983504
vt 0.979246 0.632848
vt 0.451501 0.583830
vt 0.592041 0.959755
vt 0.979245 0.854190
vt 0.359110 0.121921
vt 0.347842 0.093873
vt 0.495294 0.034635
vt 0.410300 0.036207
vt 0.452797 0.035420
vt 0.370378 0.149970
vt 0.455372 0.148399
vt 0.128639 0.162056
vt 0.411465 0.341688
vt 0.202776 0.354829
vt 0.216574 0.665679
vt 0.416144 0.652505
vt 0.113444 0.473543
vt 0.263669 0.986340
vt 0.416542 0.820048
vt 0.239262 0.069926
vt 0.222073 0.327006
vt 0.261703 0.637599
vt 0.527233 0.310488
vt 0.631140 0.454516
vt 0.799607 0.983504
vt 0.451501 0.583830
vt 0.838706 0.478264
vn -0.8581 -0.0351 0.5122
vn -0.0091 -0.6168 0.7871
vn 0.0134 -0.0278 0.9995
vn -0.8658 -0.0386 -0.4989
vn -0.7283 -0.6852 0.0000
vn -0.9995 -0.0331 0.0000
vn -0.0090 -0.5983 -0.8012
vn -0.6982 -0.5911 -0.4039
vn 0.4998 -0.0266 -0.8657
vn 0.6780 -0.6149 -0.4027
vn 0.3584 -0.6974 -0.6207
vn -0.0000 -1.0000 -0.0000
vn 0.3509 -0.7123 0.6079
vn 0.8727 -0.0272 -0.4875
vn 0.6769 -0.6243 0.3900
vn 0.4999 -0.0214 0.8658
vn 0.0071 -0.0761 0.9971
vn 0.4994 -0.0489 0.8650
vn 0.4985 -0.0783 0.8634
vn 0.8673 -0.0745 -0.4922
vn 0.8649 -0.0578 0.4986
vn 0.8563 -0.0574 -0.5133
vn 0.5122 -0.0564 -0.8570
vn 0.4994 -0.0491 -0.8650
vn -0.8899 -0.0879 -0.4476
vn -0.0154 -0.0564 -0.9983
vn -0.8644 -0.0559 -0.4998
vn -0.9988 -0.0491 0.0000
vn -0.9985 -0.0382 0.0390
vn -0.8611 -0.0485 0.5061
vn -0.0158 -0.0574 0.9982
vn -0.8825 -0.1688 0.4390
vn 0.1045 -0.2473 0.9633
vn -0.9931 -0.0673 0.0964
vn 0.0305 -0.2098 -0.9773
vn -0.9194 -0.2211 -0.3254
vn 0.5359 -0.0626 -0.8420
vn 0.8026 -0.1856 0.5669
vn 0.8343 -0.1622 -0.5269
vn 0.4788 -0.0999 0.8722
vn 0.5093 -0.1712 0.8434
vn 0.8724 -0.3433 -0.3480
vn 0.5553 -0.0966 -0.8260
vn -0.0879 -0.2884 -0.9535
vn -0.8848 -0.2894 -0.3652
vn -0.9843 -0.0946 0.1488
vn -0.7627 -0.3410 0.5496
vn 0.0876 -0.4051 0.9101
vn -0.8725 -0.0565 0.4853
vn -0.6975 -0.6002 0.3915
vn 0.0380 -0.0933 -0.9949
vn 0.0138 -0.0344 -0.9993
vn 0.7905 -0.3740 0.4851
vn 0.8625 -0.0885 0.4983
vn 0.8654 -0.0241 0.5005
vn 0.0018 0.6511 0.7590
vn 0.4572 0.7570 0.4669
vn 0.5341 0.6461 0.5452
vn 0.7692 0.6389 0.0089
vn 0.4826 0.7337 -0.4782
vn 0.5475 0.6338 -0.5464
vn -0.0031 0.9999 0.0105
vn -0.7643 0.6444 0.0224
vn -0.5269 0.6504 0.5472
vn -0.0116 0.6332 -0.7739
vn -0.5596 0.6374 -0.5297
vn -0.4807 0.7406 -0.4695
vn -0.0019 0.7655 0.6435
vn 0.6684 0.7438 0.0073
vn -0.0034 0.7323 -0.6809
vn -0.6572 0.7537 0.0086
vn -0.4891 0.7043 0.5145
vn 0.0014 0.5816 0.8134
vn -0.5615 0.5914 0.5788
vn -0.4894 0.7276 -0.4807
vn -0.7958 0.6054 0.0131
vn -0.5594 0.6156 -0.5550
vn 0.0080 0.9998 0.0193
vn 0.5658 0.5817 0.5843
vn 0.8059 0.5916 0.0231
vn 0.5785 0.6057 -0.5463
vn 0.0131 0.7278 -0.6856
vn 0.0119 0.6157 -0.7879
vn 0.7088 0.7049 0.0279
vn 0.5109 0.7183 -0.4723
vn 0.4974 0.6954 0.5186
vn -0.6960 0.7177 0.0191
vn 0.6327 0.7728 -0.0494
vn 0.4826 0.6550 -0.5815
vn 0.7447 0.6650 -0.0559
vn 0.0292 0.6525 0.7572
vn 0.4695 0.7715 0.4293
vn 0.5555 0.6640 0.5006
vn -0.7769 0.6279 0.0465
vn -0.4554 0.7465 0.4852
vn -0.5213 0.6376 0.5672
vn -0.0217 0.9997 -0.0066
vn -0.5926 0.6288 -0.5034
vn 0.0167 0.7605 0.6491
vn -0.0708 0.7495 -0.6583
vn -0.0728 0.6400 -0.7650
vn 0.4067 0.7636 -0.5015
vn -0.5165 0.7388 -0.4330
vn -0.0055 0.9999 0.0103
vn 0.7262 0.6228 -0.2913
vn 0.2997 0.6251 -0.7208
vn 0.7230 0.6158 0.3130
vn 0.6152 0.7497 -0.2438
vn -0.3077 0.6047 0.7347
vn 0.2943 0.6083 0.7371
vn 0.2478 0.7363 0.6296
vn -0.6239 0.7350 0.2656
vn -0.7325 0.6069 0.3083
vn -0.2617 0.7484 -0.6094
vn -0.7325 0.6138 -0.2944
vn -0.3054 0.6213 -0.7215
vn 0.6122 0.7433 0.2698
vn 0.2527 0.7519 -0.6090
vn -0.6243 0.7414 -0.2462
vn 0.0100 0.6095 0.7927
vn 0.4585 0.7477 0.4804
vn 0.5515 0.6099 0.5690
vn 0.7800 0.6251 0.0282
vn 0.4660 0.7808 -0.4162
vn 0.5591 0.6465 -0.5192
vn 0.0116 0.9995 0.0298
vn -0.7634 0.6453 0.0275
vn -0.5335 0.6240 0.5709
vn 0.0117 0.6615 -0.7499
vn -0.5388 0.6610 -0.5222
vn -0.4402 0.7941 -0.4191
vn -0.4347 0.7604 0.4825
vn 0.6473 0.7614 0.0354
vn 0.0144 0.7945 -0.6071
vn -0.6251 0.7798 0.0349
vn -0.4529 0.7641 0.4594
vn 0.0039 0.6952 0.7188
vn -0.6742 0.7375 0.0385
vn -0.2632 0.7329 0.6273
vn 0.0130 0.7473 0.6644
usemtl 1001
s 1
f 1/1/1 2/2/2 3/3/3
f 4/4/4 5/5/5 6/6/6
f 4/4/4 7/7/7 8/8/8
f 9/9/9 10/10/10 11/11/11
f 2/12/2 12/13/12 13/14/13
f 14/15/14 15/16/15 10/10/10
f 3/17/3 13/18/13 16/19/16
f 17/20/17 18/21/18 19/22/19
f 20/23/20 21/24/21 22/25/22
f 23/26/23 22/25/22 24/27/24
f 25/28/25 26/29/26 27/30/27
f 25/28/25 28/31/28 29/32/29
f 30/33/30 31/34/31 17/35/17
f 18/21/18 3/17/3 16/19/16
f 21/24/21 14/15/14 22/25/22
f 22/25/22 9/9/9 24/27/24
f 26/29/26 4/4/4 27/30/27
f 28/31/28 4/4/4 6/6/6
f 31/34/31 1/1/1 3/3/3
f 32/36/32 17/35/17 33/37/33
f 34/38/34 25/28/25 29/32/29
f 35/39/35 25/28/25 36/40/36
f 37/41/37 20/23/20 23/26/23
f 38/42/38 20/23/20 39/43/39
f 40/44/40 17/20/17 19/22/19
f 41/45/41 33/46/33 40/44/40
f 42/47/42 38/42/38 39/43/39
f 43/48/43 39/43/39 37/41/37
f 44/49/44 36/40/36 45/50/45
f 46/51/46 36/40/36 34/38/34
f 47/52/47 33/53/33 48/54/48
f 46/55/46 32/36/32 47/56/47
f 34/57/34 30/33/30 32/36/32
f 49/58/49 6/59/6 1/1/1
f 29/60/29 49/58/49 30/33/30
f 6/59/6 50/61/50 1/1/1
f 43/48/43 35/62/35 44/63/44
f 37/41/37 51/64/51 35/62/35
f 24/27/24 52/65/52 26/66/26
f 51/64/51 24/27/24 26/66/26
f 52/65/52 11/11/11 7/67/7
f 53/68/53 40/44/40 38/69/38
f 38/69/38 19/22/19 54/70/54
f 21/71/21 16/19/16 55/72/55
f 19/22/19 21/71/21 54/70/54
f 16/19/16 15/73/15 55/72/55
f 56/74/56 57/75/57 58/76/58
f 59/77/59 60/78/60 61/79/61
f 62/80/62 56/74/56 58/76/58
f 62/80/62 63/81/63 64/82/64
f 62/80/62 65/83/65 66/84/66
f 62/80/62 61/79/61 65/83/65
f 62/80/62 58/76/58 59/77/59
f 62/80/62 64/82/64 56/74/56
f 62/80/62 66/84/66 63/81/63
f 62/80/62 59/77/59 61/79/61
f 67/85/67 63/81/63 66/84/66
f 64/82/64 68/86/68 56/74/56
f 58/76/58 69/87/69 59/77/59
f 61/79/61 70/88/70 65/83/65
f 71/89/71 64/82/64 63/81/63
f 70/88/70 66/84/66 65/83/65
f 72/90/72 73/91/73 74/92/74
f 75/93/75 76/94/76 77/95/77
f 78/96/78 76/94/76 74/92/74
f 78/96/78 79/97/79 80/98/80
f 78/96/78 80/98/80 81/99/81
f 81/99/81 82/100/82 83/101/83
f 78/96/78 83/101/83 77/95/77
f 79/97/79 84/102/84 80/98/80
f 78/96/78 77/95/77 76/94/76
f 80/98/80 85/103/85 81/99/81
f 82/100/82 77/95/77 83/101/83
f 78/96/78 81/99/81 83/101/83
f 78/96/78 73/91/73 79/97/79
f 73/91/73 86/104/86 79/97/79
f 78/96/78 74/92/74 73/91/73
f 87/105/87 74/92/74 76/94/76
f 88/106/88 89/107/89 90/108/90
f 91/109/91 92/110/92 93/111/93
f 94/112/94 95/113/95 96/114/96
f 97/115/97 93/111/93 90/108/90
f 97/115/97 98/116/98 94/112/94
f 93/111/93 88/106/88 90/108/90
f 96/114/96 99/117/99 91/109/91
f 97/115/97 90/108/90 89/107/89
f 100/118/100 98/116/98 101/119/101
f 97/115/97 96/114/96 91/109/91
f 97/115/97 89/107/89 101/119/101
f 102/120/102 101/119/101 89/107/89
f 97/115/97 91/109/91 93/111/93
f 97/115/97 94/112/94 96/114/96
f 97/115/97 101/119/101 98/116/98
f 103/121/103 94/112/94 98/116/98
f 104/122/104 105/123/105 106/124/106
f 107/125/107 108/126/108 105/123/105
f 104/122/104 109/127/109 110/128/110
f 104/122/104 110/128/110 107/125/107
f 109/127/109 111/129/111 110/128/110
f 112/130/112 109/127/109 113/131/113
f 114/132/114 115/133/115 116/134/116
f 104/122/104 116/134/116 115/133/115
f 104/122/104 106/124/106 116/134/116
f 110/128/110 117/135/117 107/125/107
f 104/122/104 115/133/115 113/131/113
f 104/122/104 113/131/113 109/127/109
f 105/123/105 118/136/118 106/124/106
f 118/136/118 116/134/116 106/124/106
f 104/122/104 107/125/107 105/123/105
f 119/137/119 113/131/113 115/133/115
f 120/138/120 121/139/121 122/140/122
f 123/141/123 124/142/124 125/143/125
f 126/144/126 120/138/120 122/140/122
f 126/144/126 127/145/127 128/146/128
f 126/144/126 129/147/129 130/148/130
f 126/144/126 125/143/125 129/147/129
f 126/144/126 122/140/122 123/141/123
f 126/144/126 128/146/128 120/138/120
f 126/144/126 130/148/130 127/145/127
f 126/144/126 123/141/123 125/143/125
f 131/149/131 127/145/127 130/148/130
f 132/150/132 120/138/120 128/146/128
f 122/140/122 133/151/133 123/141/123
f 125/143/125 134/152/134 129/147/129
f 135/153/135 128/146/128 127/145/127
f 134/152/134 130/148/130 129/147/129
f 11/154/11 12/13/12 7/155/7
f 50/156/50 12/13/12 2/12/2
f 7/155/7 12/13/12 8/157/8
f 5/158/5 12/13/12 50/156/50
f 8/157/8 12/13/12 5/158/5
f 10/159/10 12/13/12 11/154/11
f 13/14/13 12/13/12 15/160/15
f 15/160/15 12/13/12 10/159/10
f 1/1/1 50/61/50 2/2/2
f 4/4/4 8/8/8 5/5/5
f 4/4/4 52/161/52 7/7/7
f 9/9/9 14/15/14 10/10/10
f 14/15/14 55/162/55 15/16/15
f 3/17/3 2/163/2 13/18/13
f 17/20/17 31/164/31 18/21/18
f 20/23/20 54/165/54 21/24/21
f 23/26/23 20/23/20 22/25/22
f 25/28/25 51/166/51 26/29/26
f 25/28/25 27/30/27 28/31/28
f 30/33/30 49/58/49 31/34/31
f 18/21/18 31/164/31 3/17/3
f 21/24/21 55/162/55 14/15/14
f 22/25/22 14/15/14 9/9/9
f 26/29/26 52/161/52 4/4/4
f 28/31/28 27/30/27 4/4/4
f 31/34/31 49/58/49 1/1/1
f 32/36/32 30/33/30 17/35/17
f 34/38/34 36/40/36 25/28/25
f 35/39/35 51/166/51 25/28/25
f 37/41/37 39/43/39 20/23/20
f 38/42/38 54/165/54 20/23/20
f 40/44/40 33/46/33 17/20/17
f 41/45/41 48/167/48 33/46/33
f 42/47/42 53/168/53 38/42/38
f 43/48/43 42/47/42 39/43/39
f 44/49/44 35/39/35 36/40/36
f 46/51/46 45/50/45 36/40/36
f 47/52/47 32/169/32 33/53/33
f 46/55/46 34/57/34 32/36/32
f 34/57/34 29/60/29 30/33/30
f 49/58/49 28/170/28 6/59/6
f 29/60/29 28/170/28 49/58/49
f 6/59/6 5/171/5 50/61/50
f 43/48/43 37/41/37 35/62/35
f 37/41/37 23/26/23 51/64/51
f 24/27/24 9/9/9 52/65/52
f 51/64/51 23/26/23 24/27/24
f 52/65/52 9/9/9 11/11/11
f 53/68/53 41/45/41 40/44/40
f 38/69/38 40/44/40 19/22/19
f 21/71/21 18/21/18 16/19/16
f 19/22/19 18/21/18 21/71/21
f 16/19/16 13/18/13 15/73/15
f 56/74/56 68/86/68 57/75/57
f 59/77/59 69/87/69 60/78/60
f 67/85/67 71/89/71 63/81/63
f 64/82/64 136/172/136 68/86/68
f 58/76/58 57/75/57 69/87/69
f 61/79/61 60/78/60 70/88/70
f 71/89/71 136/172/136 64/82/64
f 70/88/70 67/85/67 66/84/66
f 72/90/72 137/173/137 73/91/73
f 75/93/75 87/105/87 76/94/76
f 81/99/81 85/103/85 82/100/82
f 79/97/79 86/104/86 84/102/84
f 80/98/80 84/102/84 85/103/85
f 82/100/82 75/93/75 77/95/77
f 73/91/73 137/173/137 86/104/86
f 87/105/87 72/90/72 74/92/74
f 88/106/88 102/120/102 89/107/89
f 91/109/91 99/117/99 92/110/92
f 94/112/94 138/174/138 95/113/95
f 93/111/93 92/110/92 88/106/88
f 96/114/96 95/113/95 99/117/99
f 100/118/100 103/121/103 98/116/98
f 102/120/102 100/118/100 101/119/101
f 103/121/103 138/174/138 94/112/94
f 107/125/107 117/135/117 108/126/108
f 109/127/109 139/175/139 111/129/111
f 112/130/112 139/175/139 109/127/109
f 114/132/114 119/137/119 115/133/115
f 110/128/110 111/129/111 117/135/117
f 105/123/105 108/126/108 118/136/118
f 118/136/118 114/132/114 116/134/116
f 119/137/119 112/130/112 113/131/113
f 120/138/120 140/176/140 121/139/121
f 123/141/123 133/151/133 124/142/124
f 131/149/131 135/153/135 127/145/127
f 132/150/132 140/176/140 120/138/120
f 122/140/122 121/139/121 133/151/133
f 125/143/125 124/142/124 134/152/134
f 135/153/135 132/150/132 128/146/128
f 134/152/134 131/149/131 130/148/130
